<svg width="100" height="37" viewBox="0 0 100 37" xmlns="http://www.w3.org/2000/svg"><g fill="#00A260" fill-rule="evenodd"><path d="M49.761 19.8186a1.4086 1.4086 0 0 1-.2831.295.6372.6372 0 0 1-.3894.1062 1.0487 1.0487 0 0 1-.59-.2213c-.2124-.1475-.4749-.3097-.7876-.4867a6.3171 6.3171 0 0 0-1.1504-.4867 6.205 6.205 0 0 0-4.0089.2478 4.497 4.497 0 0 0-1.6902 1.354 6.1298 6.1298 0 0 0-1.0325 2.1415 10.6268 10.6268 0 0 0-.3451 2.8142 10.2817 10.2817 0 0 0 .3717 2.8938 6.171 6.171 0 0 0 1.053 2.1239 4.5265 4.5265 0 0 0 1.646 1.3097 5.0546 5.0546 0 0 0 2.1682.4514 5.211 5.211 0 0 0 3.124-.885c.3244-.2242.5958-.4277.814-.6106a1.0133 1.0133 0 0 1 .646-.2744.6932.6932 0 0 1 .6019.295l.885 1.1505a6.2684 6.2684 0 0 1-1.3275 1.239 8.1637 8.1637 0 0 1-1.6018.8583 8.702 8.702 0 0 1-1.7906.5162c-.6335.1071-1.2749.1604-1.9174.1593a7.8333 7.8333 0 0 1-3.1239-.6194 7.118 7.118 0 0 1-2.5073-1.7965A8.407 8.407 0 0 1 36.8614 29.5a12.7847 12.7847 0 0 1-.0443-7.6106 8.3805 8.3805 0 0 1 1.6224-2.9292 7.3982 7.3982 0 0 1 2.6372-1.9174 8.8496 8.8496 0 0 1 3.6018-.6903 8.5015 8.5015 0 0 1 3.3362.6106 7.9912 7.9912 0 0 1 2.5576 1.7257l-.8112 1.1298zM65.5782 34.562a1.3732 1.3732 0 0 1-.708-.1475 1.0236 1.0236 0 0 1-.3894-.59l-.354-1.6814c-.472.4247-.935.8053-1.3893 1.1416a8.3407 8.3407 0 0 1-1.416.8495 7.4926 7.4926 0 0 1-1.5752.531 8.6696 8.6696 0 0 1-1.8731.18 6.4602 6.4602 0 0 1-1.9646-.295 4.5383 4.5383 0 0 1-1.6018-.8762 4.1195 4.1195 0 0 1-1.0797-1.4749 5.1622 5.1622 0 0 1-.3982-2.115 3.9454 3.9454 0 0 1 .59-2.0443c.3933-.6548 1.0246-1.236 1.8938-1.7433.8692-.5074 2.0079-.9233 3.416-1.2478 1.404-.3245 3.1248-.5104 5.1622-.5575v-1.3983c0-1.3923-.301-2.4454-.9027-3.1593-.6018-.7138-1.4808-1.0708-2.6372-1.0708a5.6696 5.6696 0 0 0-1.9557.295 7.3319 7.3319 0 0 0-1.3629.6549c-.3834.2419-.7138.4602-.9911.6549a1.4307 1.4307 0 0 1-.823.295.9027.9027 0 0 1-.5487-.1682 1.5354 1.5354 0 0 1-.3894-.416l-.5663-1.0088a10.2375 10.2375 0 0 1 3.2035-2.1416 9.8923 9.8923 0 0 1 3.8053-.708 6.795 6.795 0 0 1 2.6726.4956 5.4853 5.4853 0 0 1 1.9646 1.3806 5.8496 5.8496 0 0 1 1.2153 2.1357c.2797.8933.417 1.825.4071 2.761v11.469H65.5781zm-6.761-1.9293a6.4263 6.4263 0 0 0 1.522-.1681 6.0015 6.0015 0 0 0 1.301-.4779 6.5811 6.5811 0 0 0 1.168-.761 10.848 10.848 0 0 0 1.0886-1.0177V26.494a26.2802 26.2802 0 0 0-3.708.3451 10.5575 10.5575 0 0 0-2.4956.7168c-.643.295-1.1091.6431-1.3982 1.0443a2.2463 2.2463 0 0 0-.4336 1.3451c-.0105.4188.068.835.23 1.2213a2.264 2.264 0 0 0 .6284.8407c.2755.2236.5951.3865.938.4779.378.1017.768.1513 1.1593.1474zM82.2094 19.5885a.6976.6976 0 0 1-.6548.3894 1.2286 1.2286 0 0 1-.6018-.1947c-.2242-.1298-.4985-.2744-.823-.4336a7.739 7.739 0 0 0-1.1593-.4425 5.5383 5.5383 0 0 0-1.593-.2036 4.705 4.705 0 0 0-1.4335.2036 3.4469 3.4469 0 0 0-1.0885.5575 2.4705 2.4705 0 0 0-.6903.823 2.2124 2.2124 0 0 0-.239 1.0177 1.6947 1.6947 0 0 0 .3983 1.1505 3.4558 3.4558 0 0 0 1.053.7964 9.1445 9.1445 0 0 0 1.4868.59 79.766 79.766 0 0 1 1.708.5487 23.416 23.416 0 0 1 1.7197.649 6.1947 6.1947 0 0 1 1.4868.8849 4.0487 4.0487 0 0 1 1.053 1.3009c.2795.5755.416 1.21.3983 1.8495a5.8584 5.8584 0 0 1-.4425 2.292 5.003 5.003 0 0 1-1.3156 1.823 6.3142 6.3142 0 0 1-2.124 1.2125 8.73 8.73 0 0 1-2.9026.4424 9.0546 9.0546 0 0 1-3.3923-.6106 8.6091 8.6091 0 0 1-2.584-1.5664l.7374-1.2035a1.0782 1.0782 0 0 1 .3363-.354.91.91 0 0 1 .4955-.1239 1.18 1.18 0 0 1 .6726.2478c.236.1652.5221.3481.8584.5487.39.225.8022.4088 1.2301.5487a5.643 5.643 0 0 0 1.8053.2477 4.9292 4.9292 0 0 0 1.6106-.2389 3.3805 3.3805 0 0 0 1.1505-.646 2.562 2.562 0 0 0 .6814-.938 2.9189 2.9189 0 0 0 .2212-1.1328 1.879 1.879 0 0 0-.3982-1.23 3.3643 3.3643 0 0 0-1.053-.832 8.6106 8.6106 0 0 0-1.4957-.6017 110.091 110.091 0 0 1-1.7168-.5398 19.3465 19.3465 0 0 1-1.7168-.646 6.0192 6.0192 0 0 1-1.4956-.9116 4.1298 4.1298 0 0 1-1.053-1.354 4.3776 4.3776 0 0 1-.3983-1.9557 4.7714 4.7714 0 0 1 .4248-1.9735 4.8407 4.8407 0 0 1 1.239-1.6637 6.0988 6.0988 0 0 1 2-1.1416 8.0015 8.0015 0 0 1 2.7079-.4247 8.5678 8.5678 0 0 1 3.177.5575 7.5221 7.5221 0 0 1 2.4336 1.531l-.7139 1.1504zM98.497 34.562a1.3732 1.3732 0 0 1-.708-.1475 1.0236 1.0236 0 0 1-.3893-.59l-.354-1.6814c-.472.4247-.935.8053-1.3894 1.1416a8.3407 8.3407 0 0 1-1.4159.8495 7.4926 7.4926 0 0 1-1.5752.531 8.6696 8.6696 0 0 1-1.8673.1858 6.4602 6.4602 0 0 1-1.9646-.295 4.5383 4.5383 0 0 1-1.6017-.876 4.1195 4.1195 0 0 1-1.0797-1.475 5.1622 5.1622 0 0 1-.3982-2.115 3.9454 3.9454 0 0 1 .59-2.0443c.3933-.6548 1.0245-1.236 1.8938-1.7433.8692-.5074 2.0064-.9253 3.4115-1.2537 1.4041-.3245 3.1248-.5104 5.1622-.5575v-1.3983c0-1.3923-.3009-2.4454-.9026-3.1593-.6018-.7138-1.4809-1.0708-2.6372-1.0708a5.6696 5.6696 0 0 0-1.9558.295 7.3319 7.3319 0 0 0-1.3628.6549c-.3835.2419-.7139.4602-.9911.6549a1.4307 1.4307 0 0 1-.823.295.9027.9027 0 0 1-.5487-.1682 1.5354 1.5354 0 0 1-.3894-.416l-.5664-1.0147a10.2375 10.2375 0 0 1 3.2036-2.1416 9.8923 9.8923 0 0 1 3.8053-.708 6.795 6.795 0 0 1 2.6725.4956 5.4853 5.4853 0 0 1 1.9705 1.3806 5.8496 5.8496 0 0 1 1.2036 2.1416c.2796.8933.417 1.825.407 2.761v11.469H98.4972zm-6.761-1.9293a6.4263 6.4263 0 0 0 1.5221-.1681 6.0015 6.0015 0 0 0 1.3009-.4779 6.5811 6.5811 0 0 0 1.1681-.761 10.848 10.848 0 0 0 1.0885-1.0177V26.494a26.2802 26.2802 0 0 0-3.708.3451 10.5575 10.5575 0 0 0-2.491.7139c-.6431.295-1.1092.643-1.3983 1.0442a2.2463 2.2463 0 0 0-.4336 1.3452c-.0105.4187.068.835.23 1.2212a2.264 2.264 0 0 0 .6284.8407c.2755.2237.5951.3865.938.4779.3764.1023.7649.153 1.1549.1504z" fill-rule="nonzero"></path><path d="M28.6062 10.4056l-7.27-7.6578a7.2965 7.2965 0 0 0-11.0619-.1283L6.3378 6.8437V5.146c0-.9336-.6623-1.6888-1.475-1.6888-.8127 0-1.4749.7567-1.4749 1.6888v4.8673l-.3628.3894C-.1726 13.2994.0088 16.7979.0088 16.7979v11.705l.0133-.0206a7.3373 7.3373 0 0 0-.0133.4425c-.0009 3.098 1.9538 5.859 4.8761 6.8876 2.9223 1.0285 6.1755.1003 8.1151-2.3153l8.5088-7.6328c2.5847-2.3361 3.4784-6.015 2.2535-9.2766-1.2249-3.2615-4.3193-5.4427-7.8028-5.4999-3.4835-.0572-6.6479 2.021-7.9793 5.2406-1.3313 3.2196-.559 6.9258 1.9475 9.3456.5192.0487 1.301-.0162 1.823-.6946.347-.2613.5625-.661.59-1.0944-1.8194-1.4661-2.523-3.9163-1.7586-6.1244.7644-2.208 2.8323-3.6987 5.1688-3.726 2.3364-.0275 4.4386 1.4144 5.2546 3.604.8159 2.1894.1699 4.6555-1.6146 6.1638l-1.739 1.615-5.761 5.354v.028l-1.4632 1.267S9.177 33.376 7.3953 33.376v-.0074h-.0915c-2.4174 0-4.376-2.0177-4.376-4.435a4.4248 4.4248 0 0 1 .0324-.5222V17.5752c.1578-3.5398 2.1312-5.3599 2.1312-5.3599l.6269-.6637A1.5855 1.5855 0 0 0 6 11.2566l2.5354-2.6843 3.9513-4.034a4.709 4.709 0 0 1 .2773-.2831c1.6955-1.5853 4.3344-1.5691 6.0103.0368l.059.0576.0133.0132 4.0516 3.9823 3.7758 3.8776s2.264 2.2124 2.0502 5.0148V28.41a4.3702 4.3702 0 0 1-4.3422 4.913 4.3643 4.3643 0 0 1-3.4277-1.6667 1.5973 1.5973 0 0 0-.3894-.5737v-.0089a1.4277 1.4277 0 0 0-.9779-.379 1.5103 1.5103 0 0 0-1.0929 2.5457c1.8635 2.5505 5.1562 3.613 8.159 2.6327 3.0028-.9802 5.0344-3.7807 5.0342-6.9395 0-.1514-.0044-.2989-.0133-.4424l.0177.0265V16.8009s.2714-3.3599-3.0855-6.3953z"></path><path d="M13 25.1563c-.0678-.885-.708-1.5781-1.5796-1.5781-.8719 0-1.5789.7063-1.5797 1.5781-.005.175.022.3495.0797.5148.0678.1018.3554.6047.7802.885.223.1152.4703.1754.7212.1755.8761.003 1.6446-.7065 1.5782-1.5753z" fill-rule="nonzero"></path></g></svg>