<svg preserveAspectRatio="none" width="100%" height="100%" overflow="visible" style="display: block;" viewBox="0 0 26 26" fill="none" xmlns="http://www.w3.org/2000/svg">
<g id="notification 1">
<path id="Vector" d="M12.9998 24.9167C13.5744 24.9167 14.1255 24.6884 14.5318 24.2821C14.9382 23.8757 15.1664 23.3246 15.1664 22.75H10.8331C10.8331 23.3246 11.0614 23.8757 11.4677 24.2821C11.874 24.6884 12.4251 24.9167 12.9998 24.9167ZM4.3331 20.5833H21.6664C21.8807 20.5833 22.0901 20.5197 22.2682 20.4007C22.4463 20.2816 22.5851 20.1125 22.6671 19.9145C22.7491 19.7166 22.7705 19.4988 22.7287 19.2887C22.687 19.0786 22.5838 18.8856 22.4324 18.7341L20.5831 16.8848V10.8333C20.5796 9.01171 19.9211 7.2521 18.7277 5.87577C17.5344 4.49945 15.8859 3.59823 14.0831 3.33667V2.16667C14.0831 1.87935 13.969 1.6038 13.7658 1.40063C13.5626 1.19747 13.2871 1.08333 12.9998 1.08333C12.7125 1.08333 12.4369 1.19747 12.2337 1.40063C12.0306 1.6038 11.9164 1.87935 11.9164 2.16667V3.33667C10.1137 3.59823 8.46514 4.49945 7.27179 5.87577C6.07845 7.2521 5.41992 9.01171 5.41644 10.8333V16.8848L3.56719 18.7341C3.41573 18.8856 3.31259 19.0786 3.2708 19.2887C3.22902 19.4988 3.25048 19.7166 3.33245 19.9145C3.41443 20.1125 3.55324 20.2816 3.73136 20.4007C3.90947 20.5197 4.11887 20.5833 4.3331 20.5833ZM7.26569 18.0993C7.46886 17.8961 7.58304 17.6206 7.5831 17.3333V10.8333C7.5831 9.39674 8.15378 8.01899 9.16961 7.00317C10.1854 5.98735 11.5632 5.41667 12.9998 5.41667C14.4364 5.41667 15.8141 5.98735 16.8299 7.00317C17.8458 8.01899 18.4164 9.39674 18.4164 10.8333V17.3333C18.4165 17.6206 18.5307 17.8961 18.7339 18.0993L19.0513 18.4167H6.94827L7.26569 18.0993Z" fill="var(--fill-0, #0A2540)"/>
</g>
</svg>
