<svg preserveAspectRatio="none" width="100%" height="100%" overflow="visible" style="display: block;" viewBox="0 0 32 32" fill="none" xmlns="http://www.w3.org/2000/svg">
<g id="settings 2">
<path id="Vector" d="M16 12C13.7909 12 12 13.7909 12 16C12 18.2091 13.7909 20 16 20C18.2091 20 20 18.2091 20 16C20 13.7909 18.2091 12 16 12ZM14 16C14 14.8954 14.8954 14 16 14C17.1046 14 18 14.8954 18 16C18 17.1046 17.1046 18 16 18C14.8954 18 14 17.1046 14 16Z" fill="currentColor"/>
<path id="Vector_2" d="M21.236 8.79644C20.466 8.93628 19.7278 8.42804 19.5874 7.66126L19.0679 4.8297C19.0163 4.54832 18.7992 4.3258 18.5182 4.26628C17.6964 4.0922 16.8537 4.00368 16 4.00368C15.1458 4.00368 14.3026 4.09232 13.4803 4.2666C13.1992 4.32618 12.9821 4.54882 12.9306 4.83032L12.4126 7.66138C12.3988 7.73666 12.3788 7.8108 12.3529 7.88298C12.0895 8.61696 11.2784 8.99934 10.5412 8.73704L7.8223 7.76904C7.55206 7.67282 7.25022 7.7484 7.05782 7.96044C5.9201 9.21436 5.05784 10.6939 4.5344 12.3058C4.4461 12.5778 4.53124 12.8759 4.75004 13.0608L6.95388 14.9239C7.01252 14.9735 7.06704 15.0278 7.11686 15.0862C7.62354 15.6803 7.55056 16.5709 6.95386 17.0754L4.75004 18.9385C4.53124 19.1234 4.4461 19.4216 4.5344 19.6935C5.05784 21.3054 5.9201 22.785 7.05782 24.039C7.25022 24.251 7.55206 24.3266 7.8223 24.2304L10.5414 23.2622C10.6137 23.2366 10.6882 23.2166 10.7639 23.2028C11.534 23.063 12.2722 23.5712 12.4126 24.338L12.9306 27.169C12.9821 27.4506 13.1992 27.6732 13.4803 27.7328C14.3026 27.907 15.1458 27.9956 16 27.9956C16.8537 27.9956 17.6964 27.9072 18.5182 27.733C18.7992 27.6736 19.0163 27.451 19.0679 27.1696L19.5874 24.3382C19.6012 24.2626 19.6212 24.1886 19.6471 24.1164C19.9105 23.3824 20.7216 23 21.4588 23.2622L24.1776 24.2304C24.448 24.3266 24.7498 24.251 24.9422 24.039C26.08 22.785 26.9422 21.3054 27.4656 19.6935C27.554 19.4216 27.4688 19.1234 27.25 18.9385L25.0462 17.0754C24.9874 17.0258 24.933 16.9716 24.8832 16.9131C24.3764 16.319 24.4494 15.4284 25.0462 14.9239L27.25 13.0608C27.4688 12.8759 27.554 12.5778 27.4656 12.3058C26.9422 10.6939 26.08 9.21436 24.9422 7.96044C24.7498 7.7484 24.448 7.67282 24.1776 7.76904L21.4586 8.73708C21.3862 8.76282 21.3118 8.7827 21.236 8.79644ZM7.99726 9.9543L9.87044 10.6212C11.6403 11.251 13.5974 10.3361 14.2354 8.55858C14.2981 8.38392 14.3465 8.20398 14.3799 8.02134L14.7348 6.08204C15.1514 6.03002 15.5737 6.00368 16 6.00368C16.426 6.00368 16.8479 6.02998 17.2643 6.08192L17.6202 8.02212C17.9611 9.88138 19.7453 11.0998 21.5934 10.7643C21.7754 10.7312 21.955 10.6833 22.1294 10.6212L24.0028 9.9543C24.5128 10.6215 24.9368 11.3493 25.2638 12.1211L23.7548 13.3966C22.3132 14.6155 22.135 16.7728 23.3614 18.2109C23.4816 18.352 23.6134 18.4831 23.755 18.6028L25.2638 19.8783C24.9368 20.65 24.5128 21.3778 24.0028 22.045L22.1292 21.378C20.3594 20.7482 18.4026 21.6632 17.7646 23.4408C17.7019 23.6154 17.6535 23.7954 17.6201 23.978L17.2643 25.9174C16.8479 25.9694 16.426 25.9956 16 25.9956C15.5737 25.9956 15.1514 25.9694 14.7348 25.9172L14.3799 23.9778C14.0393 22.1182 12.2549 20.8994 10.4066 21.235C10.2245 21.2682 10.045 21.316 9.87056 21.3782L7.99726 22.045C7.48714 21.3778 7.06322 20.65 6.73628 19.8783L8.24514 18.6027C9.68686 17.3838 9.86508 15.2266 8.63866 13.7884C8.51834 13.6473 8.38664 13.5162 8.24508 13.3965L6.73628 12.1211C7.06322 11.3493 7.48714 10.6215 7.99726 9.9543Z" fill="currentColor"/>
</g>
</svg>
